<svg version="1.1" id="Layer_1" xmlns="http://www.w3.org/2000/svg" xmlns:xlink="http://www.w3.org/1999/xlink" x="0px" y="0px"
	 width="100%" viewBox="0 0 225 225" enable-background="new 0 0 225 225" xml:space="preserve">
<path fill="#000000" opacity="1.000000" stroke="none" 
	d="
M125.000000,226.000000 
	C83.333336,226.000000 42.166672,226.000000 1.000005,226.000000 
	C1.000004,151.000000 1.000004,76.000015 1.000002,1.000016 
	C75.999992,1.000010 150.999985,1.000010 225.999969,1.000005 
	C225.999985,75.999985 225.999985,150.999969 226.000000,225.999969 
	C192.500000,226.000000 159.000000,226.000000 125.000000,226.000000 
M114.691643,72.705032 
	C114.560349,72.581879 114.429062,72.458733 114.755188,71.813515 
	C121.301773,65.329201 120.210411,57.214687 119.700851,47.916042 
	C116.614990,49.435062 113.774368,50.230137 111.718102,51.958416 
	C105.493240,57.190372 102.504883,63.989925 102.944458,72.258827 
	C103.060684,74.445137 103.223961,77.164413 102.113739,78.777122 
	C99.133110,83.106773 95.475212,86.970184 91.974113,90.177322 
	C92.313423,87.909416 92.414223,85.573807 93.035339,83.385895 
	C95.174614,75.850136 96.685295,67.995895 99.909386,60.936111 
	C107.572281,44.156658 120.542839,31.966152 135.948074,22.163614 
	C139.128891,20.139616 141.972305,17.585390 144.971237,15.275546 
	C144.743011,14.861880 144.514786,14.448215 144.286575,14.034550 
	C135.787186,15.114790 127.649940,17.945890 120.273346,22.101822 
	C113.717979,25.795080 108.038521,31.036768 101.946373,35.559864 
	C91.314888,43.453171 84.539520,54.085354 79.827766,66.263031 
	C74.662460,79.612946 74.163879,93.733459 73.151512,107.703377 
	C72.617676,115.069778 73.596886,122.545822 73.250168,129.627853 
	C69.817978,119.130211 66.445557,108.612556 62.938435,98.140007 
	C58.571011,85.098541 50.589161,74.443504 39.216602,67.061935 
	C32.793194,62.892708 24.957672,60.849003 17.666731,58.089615 
	C14.481688,56.884171 11.067451,56.284313 7.757297,55.409447 
	C7.301046,56.116722 6.844795,56.824001 6.388545,57.531277 
	C7.552547,58.165203 8.754056,58.739300 9.874912,59.442043 
	C26.170124,69.658646 35.653442,85.181778 42.626617,102.409477 
	C51.936092,125.409172 60.517384,148.705200 69.942711,171.655777 
	C75.480263,185.139648 83.099335,197.484344 94.009552,207.498199 
	C98.618813,211.728760 104.187439,212.591293 110.013054,211.749893 
	C111.718689,211.503555 114.332535,209.861038 114.566589,208.516617 
	C115.343117,204.056015 115.463951,199.435547 115.385193,194.884201 
	C115.300507,189.990768 114.076950,185.049316 114.511894,180.233719 
	C114.946411,175.422928 116.339836,170.544235 118.192924,166.058899 
	C120.101463,161.439346 122.440536,156.696060 125.721031,153.013306 
	C131.084213,146.992462 138.429504,147.132782 144.166122,152.730499 
	C147.333618,155.821304 150.202591,159.276764 152.832367,162.843414 
	C155.448456,166.391495 157.596649,170.284561 160.155289,174.352707 
	C161.208435,173.090729 161.672043,172.760010 161.798569,172.330093 
	C161.981689,171.707870 162.083115,170.976349 161.939774,170.356064 
	C159.670578,160.536942 157.942642,150.501312 150.978790,142.524719 
	C142.947052,133.324890 135.178894,130.956100 123.356499,134.123947 
	C114.011497,136.627975 108.879868,144.199585 104.013344,151.087738 
	C105.908936,133.023407 109.735451,120.980759 130.575943,115.196121 
	C132.609283,125.702141 140.154831,134.226746 147.932053,133.329437 
	C146.678299,126.878365 145.441864,120.516342 144.186737,114.058167 
	C146.336929,113.523239 148.109055,114.192253 148.057663,117.805244 
	C148.032867,119.547348 148.562454,121.331223 149.039566,123.040764 
	C151.176788,130.698456 157.551682,136.190536 164.132446,135.628281 
	C163.843567,130.463745 163.553299,125.274139 163.263031,120.084534 
	C163.758224,119.917908 164.253418,119.751282 164.748611,119.584656 
	C165.500671,121.183624 166.656265,122.721642 166.909164,124.396004 
	C167.278183,126.839005 167.009201,129.380066 166.993057,131.879196 
	C166.955215,137.734848 174.263153,146.572739 181.660767,147.685730 
	C183.544312,138.464142 181.095291,130.112778 175.457779,122.185623 
	C183.642426,121.540565 191.586227,123.809044 196.966385,116.190964 
	C195.583298,114.552902 194.503220,112.507828 192.809616,111.404625 
	C186.537292,107.318916 174.143768,107.369232 168.509933,112.577805 
	C164.265732,116.501640 162.741104,113.499802 158.537735,111.570236 
	C167.917175,109.310349 175.647964,106.730499 181.582733,99.536484 
	C172.626556,93.610199 163.819931,93.769058 154.113937,98.433113 
	C155.209824,96.396736 155.908295,95.167007 156.543991,93.905640 
	C159.080658,88.872276 158.530167,88.328522 152.795044,87.939377 
	C141.526428,87.174744 133.685898,94.306740 130.863480,104.264923 
	C130.544418,105.390663 128.868408,106.335281 127.616348,106.936157 
	C126.353485,107.542206 124.825775,107.578949 123.429733,107.927643 
	C109.387238,111.435196 101.660721,121.297333 96.905708,134.206192 
	C96.253494,135.976776 95.165520,137.586868 93.697418,140.377182 
	C93.837914,117.556152 96.488525,96.968620 110.901924,79.708382 
	C119.323853,87.101097 132.113327,87.120911 141.906357,80.134361 
	C134.559601,72.527863 126.645905,68.087418 114.691643,72.705032 
z"/>
<path fill="#94A61D" opacity="1.000000" stroke="none" 
	d="
M104.133072,151.940231 
	C108.879868,144.199585 114.011497,136.627975 123.356499,134.123947 
	C135.178894,130.956100 142.947052,133.324890 150.978790,142.524719 
	C157.942642,150.501312 159.670578,160.536942 161.939774,170.356064 
	C162.083115,170.976349 161.981689,171.707870 161.798569,172.330093 
	C161.672043,172.760010 161.208435,173.090729 160.155289,174.352707 
	C157.596649,170.284561 155.448456,166.391495 152.832367,162.843414 
	C150.202591,159.276764 147.333618,155.821304 144.166122,152.730499 
	C138.429504,147.132782 131.084213,146.992462 125.721031,153.013306 
	C122.440536,156.696060 120.101463,161.439346 118.192924,166.058899 
	C116.339836,170.544235 114.946411,175.422928 114.511894,180.233719 
	C114.076950,185.049316 115.300507,189.990768 115.385193,194.884201 
	C115.463951,199.435547 115.343117,204.056015 114.566589,208.516617 
	C114.332535,209.861038 111.718689,211.503555 110.013054,211.749893 
	C104.187439,212.591293 98.618813,211.728760 94.009552,207.498199 
	C83.099335,197.484344 75.480263,185.139648 69.942711,171.655777 
	C60.517384,148.705200 51.936092,125.409172 42.626617,102.409477 
	C35.653442,85.181778 26.170124,69.658646 9.874912,59.442043 
	C8.754056,58.739300 7.552547,58.165203 6.388545,57.531277 
	C6.844795,56.824001 7.301046,56.116722 7.757297,55.409447 
	C11.067451,56.284313 14.481688,56.884171 17.666731,58.089615 
	C24.957672,60.849003 32.793194,62.892708 39.216602,67.061935 
	C50.589161,74.443504 58.571011,85.098541 62.938435,98.140007 
	C66.445557,108.612556 69.817978,119.130211 73.602158,130.199509 
	C77.368004,138.854309 80.781853,146.937469 84.396042,155.306763 
	C88.181145,167.490097 96.802910,175.938629 104.443779,185.158737 
	C104.499435,179.805527 103.687866,174.736893 103.573288,169.652557 
	C103.440399,163.755646 103.919579,157.844940 104.133072,151.940231 
z"/>
<path fill="#FFBD13" opacity="1.000000" stroke="none" 
	d="
M104.073212,151.513977 
	C103.919579,157.844940 103.440399,163.755646 103.573288,169.652557 
	C103.687866,174.736893 104.499435,179.805527 104.443779,185.158737 
	C96.802910,175.938629 88.181145,167.490097 84.396255,154.851501 
	C84.125298,142.241791 83.002342,130.255417 84.316994,118.542641 
	C85.366165,109.195091 89.385399,100.180908 92.086281,91.018745 
	C95.475212,86.970184 99.133110,83.106773 102.113739,78.777122 
	C103.223961,77.164413 103.060684,74.445137 102.944458,72.258827 
	C102.504883,63.989925 105.493240,57.190372 111.718102,51.958416 
	C113.774368,50.230137 116.614990,49.435062 119.700851,47.916042 
	C120.210411,57.214687 121.301773,65.329201 114.306953,72.268608 
	C113.697853,73.063759 113.536980,73.403816 113.376114,73.743866 
	C113.943024,73.523750 114.509933,73.303627 115.076851,73.083511 
	C126.645905,68.087418 134.559601,72.527863 141.906357,80.134361 
	C132.113327,87.120911 119.323853,87.101097 110.901924,79.708382 
	C96.488525,96.968620 93.837914,117.556152 93.697418,140.377182 
	C95.165520,137.586868 96.253494,135.976776 96.905708,134.206192 
	C101.660721,121.297333 109.387238,111.435196 123.429733,107.927643 
	C124.825775,107.578949 126.353485,107.542206 127.616348,106.936157 
	C128.868408,106.335281 130.544418,105.390663 130.863480,104.264923 
	C133.685898,94.306740 141.526428,87.174744 152.795044,87.939377 
	C158.530167,88.328522 159.080658,88.872276 156.543991,93.905640 
	C155.908295,95.167007 155.209824,96.396736 154.113937,98.433113 
	C163.819931,93.769058 172.626556,93.610199 181.582733,99.536484 
	C175.647964,106.730499 167.917175,109.310349 158.537735,111.570236 
	C162.741104,113.499802 164.265732,116.501640 168.509933,112.577805 
	C174.143768,107.369232 186.537292,107.318916 192.809616,111.404625 
	C194.503220,112.507828 195.583298,114.552902 196.966385,116.190964 
	C191.586227,123.809044 183.642426,121.540565 175.457779,122.185623 
	C181.095291,130.112778 183.544312,138.464142 181.660324,147.685822 
	C174.263153,146.572739 166.955215,137.734848 166.993057,131.879196 
	C167.009201,129.380066 167.278183,126.839005 166.909164,124.396004 
	C166.656265,122.721642 165.500671,121.183624 164.748611,119.584656 
	C164.253418,119.751282 163.758224,119.917908 163.263031,120.084534 
	C163.553299,125.274139 163.843567,130.463745 164.132446,135.628281 
	C157.551682,136.190536 151.176788,130.698456 149.039566,123.040764 
	C148.562454,121.331223 148.032867,119.547348 148.057663,117.805244 
	C148.109055,114.192253 146.336929,113.523239 144.186737,114.058167 
	C145.441864,120.516342 146.678299,126.878365 147.932053,133.329437 
	C140.154831,134.226746 132.609283,125.702141 130.575943,115.196121 
	C109.735451,120.980759 105.908936,133.023407 104.073212,151.513977 
M145.832001,105.021690 
	C145.412781,105.683434 144.993546,106.345184 144.574326,107.006935 
	C145.375870,107.168816 146.575882,107.742249 146.908691,107.420021 
	C148.219666,106.150658 149.258057,104.599792 150.397614,103.153397 
	C150.078506,102.899605 149.759415,102.645813 149.440308,102.392021 
	C148.482315,103.222504 147.524323,104.052986 145.832001,105.021690 
z"/>
<path fill="#717F34" opacity="1.000000" stroke="none" 
	d="
M92.030197,90.598038 
	C89.385399,100.180908 85.366165,109.195091 84.316994,118.542641 
	C83.002342,130.255417 84.125298,142.241791 84.195908,154.565338 
	C80.781853,146.937469 77.368004,138.854309 73.923553,130.371765 
	C73.596886,122.545822 72.617676,115.069778 73.151512,107.703377 
	C74.163879,93.733459 74.662460,79.612946 79.827766,66.263031 
	C84.539520,54.085354 91.314888,43.453171 101.946373,35.559864 
	C108.038521,31.036768 113.717979,25.795080 120.273346,22.101822 
	C127.649940,17.945890 135.787186,15.114790 144.286575,14.034550 
	C144.514786,14.448215 144.743011,14.861880 144.971237,15.275546 
	C141.972305,17.585390 139.128891,20.139616 135.948074,22.163614 
	C120.542839,31.966152 107.572281,44.156658 99.909386,60.936111 
	C96.685295,67.995895 95.174614,75.850136 93.035339,83.385895 
	C92.414223,85.573807 92.313423,87.909416 92.030197,90.598038 
z"/>
<path fill="#000000" opacity="1.000000" stroke="none" 
	d="
M146.199158,104.952583 
	C147.524323,104.052986 148.482315,103.222504 149.440308,102.392021 
	C149.759415,102.645813 150.078506,102.899605 150.397614,103.153397 
	C149.258057,104.599792 148.219666,106.150658 146.908691,107.420021 
	C146.575882,107.742249 145.375870,107.168816 144.574326,107.006927 
	C144.993546,106.345184 145.412781,105.683434 146.199158,104.952583 
z"/>
<path fill="#000000" opacity="1.000000" stroke="none" 
	d="
M114.884247,72.894272 
	C114.509933,73.303627 113.943024,73.523750 113.376114,73.743866 
	C113.536980,73.403816 113.697853,73.063759 114.078247,72.529648 
	C114.429062,72.458733 114.560349,72.581879 114.884247,72.894272 
z"/>
</svg>